<svg class="border shadow-md" viewBox="0 0 901.12 506.88" style="width: 901.12px; height: 506.88px;" xmlns="http://www.w3.org/2000/svg" preserveAspectRatio="none"><rect class="bg" id="bg" x="0" y="0" width="901.12" height="506.88" fill="#ffffff"/><path d="M 0 -84.48 L 0 -84.48&#10;                L 148.00 -18.48&#10;                L 300.37333333333333 -84.48 L 300.37333333333333 -84.48&#10;                L 484.37 -33.48&#10;                L 600.7466666666667 -84.48 L 600.7466666666667 -84.48&#10;                L 760.75 -1.48&#10;                L 901.12 -84.48 L 901.12 -84.48&#10;                L 1001.24 -39.48&#10;                L 1201.4933333333333 -84.48  V 506.88 H 0 V -84.48 Z" fill="#09040D"/><path d="M 0 0 L 0 0.00&#10;                L 100.12 42.24&#10;                L 300.37333333333333 0.00 L 300.37333333333333 0.00&#10;                L 400.50 42.24&#10;                L 600.7466666666667 0.00 L 600.7466666666667 0.00&#10;                L 795.75 56.00&#10;                L 901.12 0.00 L 901.12 0.00&#10;                L 1044.12 42.24&#10;                L 1201.4933333333333 0.00  V 506.88 H 0 V 0.00 Z" fill="#14081e"/><path d="M 0 84.48 L 0 84.48&#10;                L 100.12 126.72&#10;                L 300.37333333333333 84.48 L 300.37333333333333 84.48&#10;                L 400.50 155.48&#10;                L 600.7466666666667 84.48 L 600.7466666666667 84.48&#10;                L 700.87 129.48&#10;                L 901.12 84.48 L 901.12 84.48&#10;                L 1040.12 126.72&#10;                L 1201.4933333333333 84.48  V 506.88 H 0 V 84.48 Z" fill="#1f0c2f"/><path d="M 0 168.96 L 0 168.96&#10;                L 172.00 221.96&#10;                L 300.37333333333333 168.96 L 300.37333333333333 168.96&#10;                L 400.50 211.20&#10;                L 600.7466666666667 168.96 L 600.7466666666667 168.96&#10;                L 772.75 245.96&#10;                L 901.12 168.96 L 901.12 168.96&#10;                L 1001.24 225.96&#10;                L 1201.4933333333333 168.96  V 506.88 H 0 V 168.96 Z" fill="#2a1040"/><path d="M 0 253.44 L 0 253.44&#10;                L 100.12 295.68&#10;                L 300.37333333333333 253.44 L 300.37333333333333 253.44&#10;                L 447.37 295.68&#10;                L 600.7466666666667 253.44 L 600.7466666666667 253.44&#10;                L 804.75 304.44&#10;                L 901.12 253.44 L 901.12 253.44&#10;                L 1115.12 295.68&#10;                L 1201.4933333333333 253.44  V 506.88 H 0 V 253.44 Z" fill="#351451"/><path d="M 0 337.92 L 0 337.92&#10;                L 174.00 380.16&#10;                L 300.37333333333333 337.92 L 300.37333333333333 337.92&#10;                L 400.50 407.92&#10;                L 600.7466666666667 337.92 L 600.7466666666667 337.92&#10;                L 821.75 406.92&#10;                L 901.12 337.92 L 901.12 337.92&#10;                L 1079.12 389.92&#10;                L 1201.4933333333333 337.92  V 506.88 H 0 V 337.92 Z" fill="#401862"/><path d="M 0 422.40000000000003 L 0 422.40&#10;                L 173.00 464.64&#10;                L 300.37333333333333 422.40 L 300.37333333333333 422.40&#10;                L 501.37 481.40&#10;                L 600.7466666666667 422.40 L 600.7466666666667 422.40&#10;                L 772.75 489.40&#10;                L 901.12 422.40 L 901.12 422.40&#10;                L 1001.24 464.64&#10;                L 1201.4933333333333 422.40  V 506.88 H 0 V 422.40 Z" fill="#4b1c73"/></svg>